# Blender v3.2.1 OBJ File: ''
# www.blender.org
mtllib rpg_projectile.mtl
o Cylinder
v 0.000000 1.400279 -7.137574
v -0.000000 2.249059 -2.656107
v 0.108339 1.378729 -7.137574
v 0.433153 2.162899 -2.656107
v 0.200183 1.317360 -7.137574
v 0.800362 1.917538 -2.656107
v 0.261552 1.225515 -7.137574
v 1.045723 1.550329 -2.656107
v 0.283102 1.117177 -7.137574
v 1.131883 1.117176 -2.656107
v 0.261552 1.008838 -7.137574
v 1.045723 0.684024 -2.656107
v 0.200183 0.916993 -7.137574
v 0.800362 0.316815 -2.656107
v 0.108339 0.855624 -7.137574
v 0.433153 0.071453 -2.656107
v -0.000000 0.834074 -7.137574
v -0.000000 -0.014706 -2.656107
v -0.108338 0.855624 -7.137574
v -0.433153 0.071453 -2.656107
v -0.200183 0.916993 -7.137574
v -0.800362 0.316814 -2.656107
v -0.261552 1.008838 -7.137574
v -1.045723 0.684023 -2.656107
v -0.283102 1.117177 -7.137574
v -1.131883 1.117176 -2.656107
v -0.261552 1.225515 -7.137574
v -1.045723 1.550329 -2.656107
v -0.200183 1.317360 -7.137574
v -0.800362 1.917538 -2.656107
v -0.108338 1.378729 -7.137574
v -0.433153 2.162900 -2.656107
v 0.000000 1.689127 -5.573960
v 0.218876 1.645590 -5.573960
v 0.404430 1.521607 -5.573960
v 0.528414 1.336053 -5.573960
v 0.571951 1.117177 -5.573960
v 0.528414 0.898300 -5.573960
v 0.404430 0.712746 -5.573960
v 0.218876 0.588763 -5.573960
v -0.000000 0.545226 -5.573960
v -0.218876 0.588763 -5.573960
v -0.404430 0.712746 -5.573960
v -0.528414 0.898300 -5.573960
v -0.571951 1.117177 -5.573960
v -0.528413 1.336053 -5.573960
v -0.404430 1.521607 -5.573960
v -0.218876 1.645590 -5.573960
v 0.000000 1.427907 -7.156312
v 0.118911 1.404254 -7.156312
v 0.219720 1.336896 -7.156312
v 0.287078 1.236088 -7.156312
v 0.310731 1.117177 -7.156312
v 0.287078 0.998265 -7.156312
v 0.219720 0.897457 -7.156312
v 0.118911 0.830099 -7.156312
v -0.000000 0.806446 -7.156312
v -0.118911 0.830099 -7.156312
v -0.219720 0.897457 -7.156312
v -0.287078 0.998265 -7.156312
v -0.310731 1.117177 -7.156312
v -0.287078 1.236088 -7.156312
v -0.219720 1.336896 -7.156312
v -0.118911 1.404254 -7.156312
v 0.000000 1.427907 -7.265759
v 0.118911 1.404254 -7.265759
v 0.219720 1.336896 -7.265759
v 0.287078 1.236088 -7.265759
v 0.310731 1.117177 -7.265759
v 0.287078 0.998265 -7.265759
v 0.219720 0.897457 -7.265759
v 0.118911 0.830099 -7.265759
v -0.000000 0.806446 -7.265759
v -0.118911 0.830099 -7.265759
v -0.219720 0.897457 -7.265759
v -0.287078 0.998265 -7.265759
v -0.310730 1.117177 -7.265759
v -0.287078 1.236088 -7.265759
v -0.219720 1.336896 -7.265759
v -0.118911 1.404254 -7.265759
v 0.169156 1.525556 -0.086056
v -0.000000 1.559204 -0.086056
v 0.312560 1.429737 -0.086056
v 0.408380 1.286333 -0.086056
v 0.442027 1.117176 -0.086056
v 0.408380 0.948020 -0.086056
v 0.312560 0.804616 -0.086056
v 0.169156 0.708796 -0.086056
v -0.000000 0.675149 -0.086056
v -0.169157 0.708796 -0.086056
v -0.312560 0.804616 -0.086056
v -0.408380 0.948020 -0.086056
v -0.442027 1.117176 -0.086056
v -0.408380 1.286333 -0.086056
v -0.312561 1.429737 -0.086056
v -0.169157 1.525556 -0.086056
vt 1.000000 0.750000
vt 1.000000 1.000000
vt 0.937500 1.000000
vt 0.937500 0.750000
vt 0.875000 1.000000
vt 0.875000 0.750000
vt 0.812500 1.000000
vt 0.812500 0.750000
vt 0.750000 1.000000
vt 0.750000 0.750000
vt 0.687500 1.000000
vt 0.687500 0.750000
vt 0.625000 1.000000
vt 0.625000 0.750000
vt 0.562500 1.000000
vt 0.562500 0.750000
vt 0.500000 1.000000
vt 0.500000 0.750000
vt 0.437500 1.000000
vt 0.437500 0.750000
vt 0.375000 1.000000
vt 0.375000 0.750000
vt 0.312500 1.000000
vt 0.312500 0.750000
vt 0.250000 1.000000
vt 0.250000 0.750000
vt 0.187500 1.000000
vt 0.187500 0.750000
vt 0.125000 1.000000
vt 0.125000 0.750000
vt 0.750000 1.000000
vt 0.687500 1.000000
vt 0.062500 1.000000
vt 0.062500 0.750000
vt 0.000000 1.000000
vt 0.000000 0.750000
vt 0.937500 0.500000
vt 0.875000 0.500000
vt 0.875000 0.500000
vt 0.937500 0.500000
vt 0.062500 0.500000
vt 0.000000 0.500000
vt 0.125000 0.500000
vt 0.187500 0.500000
vt 0.250000 0.500000
vt 0.312500 0.500000
vt 0.375000 0.500000
vt 0.437500 0.500000
vt 0.500000 0.500000
vt 0.562500 0.500000
vt 0.625000 0.500000
vt 0.687500 0.500000
vt 0.750000 0.500000
vt 0.812500 0.500000
vt 1.000000 0.500000
vt 0.687500 0.500000
vt 0.625000 0.500000
vt 0.625000 0.500000
vt 0.687500 0.500000
vt 0.562500 0.500000
vt 0.250000 0.500000
vt 0.312500 0.500000
vt 0.750000 0.500000
vt 0.375000 0.500000
vt 0.437500 0.500000
vt 0.062500 0.500000
vt 0.125000 0.500000
vt 0.812500 0.500000
vt 0.500000 0.500000
vt 1.000000 0.500000
vt 0.187500 0.500000
vt 0.000000 0.500000
vt 0.750000 0.490000
vt 0.841844 0.471731
vt 0.919706 0.419706
vt 0.971731 0.341844
vt 0.990000 0.250000
vt 0.971731 0.158156
vt 0.919706 0.080294
vt 0.841844 0.028269
vt 0.750000 0.010000
vt 0.658156 0.028269
vt 0.580294 0.080294
vt 0.528269 0.158156
vt 0.510000 0.250000
vt 0.528269 0.341844
vt 0.580294 0.419706
vt 0.658156 0.471731
vt 0.125000 0.500000
vt 0.187500 0.500000
vt 0.562500 0.500000
vt 0.062500 0.500000
vt 0.500000 0.500000
vt 0.937500 0.500000
vt 1.000000 0.500000
vt 0.000000 0.500000
vt 0.437500 0.500000
vt 0.875000 0.500000
vt 0.375000 0.500000
vt 0.812500 0.500000
vt 0.312500 0.500000
vt 0.750000 0.500000
vt 0.250000 0.500000
vt 0.341844 0.471731
vt 0.250000 0.490000
vt 0.158156 0.471731
vt 0.080294 0.419706
vt 0.028269 0.341844
vt 0.010000 0.250000
vt 0.028269 0.158156
vt 0.080294 0.080294
vt 0.158156 0.028269
vt 0.250000 0.010000
vt 0.341844 0.028269
vt 0.419706 0.080294
vt 0.471731 0.158156
vt 0.490000 0.250000
vt 0.471731 0.341844
vt 0.419706 0.419706
vt 0.437500 1.000000
vt 0.375000 1.000000
vt 0.125000 1.000000
vt 0.062500 1.000000
vt 0.875000 1.000000
vt 0.812500 1.000000
vt 0.562500 1.000000
vt 0.500000 1.000000
vt 1.000000 1.000000
vt 0.937500 1.000000
vt 0.250000 1.000000
vt 0.187500 1.000000
vt 0.625000 1.000000
vt 0.312500 1.000000
vt 0.000000 1.000000
vn 0.0000 0.9827 -0.1851
vn 0.0000 0.9994 0.0353
vn 0.3824 0.9233 0.0353
vn 0.3761 0.9079 -0.1851
vn 0.7067 0.7067 0.0353
vn 0.6949 0.6949 -0.1851
vn 0.9233 0.3824 0.0353
vn 0.9079 0.3761 -0.1851
vn 0.9994 0.0000 0.0353
vn 0.9827 0.0000 -0.1851
vn 0.9233 -0.3824 0.0353
vn 0.9079 -0.3761 -0.1851
vn 0.7067 -0.7067 0.0353
vn 0.6949 -0.6949 -0.1851
vn 0.3824 -0.9233 0.0353
vn 0.3761 -0.9079 -0.1851
vn -0.0000 -0.9994 0.0353
vn -0.0000 -0.9827 -0.1851
vn -0.3824 -0.9233 0.0353
vn -0.3761 -0.9079 -0.1851
vn -0.7067 -0.7067 0.0353
vn -0.6949 -0.6949 -0.1851
vn -0.9233 -0.3824 0.0353
vn -0.9079 -0.3761 -0.1851
vn -0.9994 0.0000 0.0353
vn -0.9827 0.0000 -0.1851
vn -0.9233 0.3824 0.0353
vn -0.9079 0.3761 -0.1851
vn -0.7067 0.7067 0.0353
vn -0.6949 0.6949 -0.1851
vn 0.9658 0.0000 0.2592
vn 0.8923 -0.3696 0.2592
vn -0.3824 0.9233 0.0353
vn -0.3761 0.9079 -0.1851
vn 0.2148 0.5186 0.8276
vn 0.3969 0.3969 0.8276
vn -0.3763 0.9085 -0.1817
vn 0.0000 0.9834 -0.1817
vn -0.6953 0.6953 -0.1817
vn -0.9085 0.3763 -0.1817
vn -0.9834 0.0000 -0.1817
vn -0.9085 -0.3763 -0.1817
vn -0.6953 -0.6953 -0.1817
vn -0.3763 -0.9085 -0.1817
vn -0.0000 -0.9834 -0.1817
vn 0.3763 -0.9085 -0.1817
vn 0.6953 -0.6953 -0.1817
vn 0.9085 -0.3763 -0.1817
vn 0.9834 0.0000 -0.1817
vn 0.9085 0.3763 -0.1817
vn 0.6953 0.6953 -0.1817
vn 0.3763 0.9085 -0.1817
vn 0.9239 -0.3827 0.0000
vn 0.7071 -0.7071 0.0000
vn 0.3969 -0.3969 0.8276
vn 0.2148 -0.5186 0.8276
vn -0.5186 -0.2148 0.8276
vn -0.5613 0.0000 0.8276
vn 0.5613 0.0000 0.8276
vn 0.5186 -0.2148 0.8276
vn -0.2148 -0.5186 0.8276
vn -0.3969 -0.3969 0.8276
vn -0.3969 0.3969 0.8276
vn -0.2148 0.5186 0.8276
vn 0.5186 0.2148 0.8276
vn -0.0000 -0.5613 0.8276
vn 0.0000 0.5613 0.8276
vn -0.5186 0.2148 0.8276
vn -0.0000 0.0000 -1.0000
vn -0.9239 0.3827 -0.0000
vn -0.7071 0.7071 0.0000
vn 0.3827 -0.9239 0.0000
vn -0.3827 0.9239 0.0000
vn -0.0000 -1.0000 0.0000
vn 0.0000 1.0000 0.0000
vn 0.3827 0.9239 0.0000
vn -0.3827 -0.9239 0.0000
vn 0.7071 0.7071 0.0000
vn -0.7071 -0.7071 0.0000
vn 0.9239 0.3827 0.0000
vn -0.9239 -0.3827 -0.0000
vn 1.0000 0.0000 0.0000
vn -1.0000 0.0000 -0.0000
vn -0.0000 0.0000 1.0000
vn -0.3696 -0.8923 0.2592
vn -0.6829 -0.6829 0.2592
vn -0.6829 0.6829 0.2592
vn -0.3696 0.8923 0.2592
vn 0.6829 0.6829 0.2592
vn 0.8923 0.3696 0.2592
vn 0.3696 -0.8923 0.2592
vn -0.0000 -0.9658 0.2592
vn 0.0000 0.9658 0.2592
vn 0.3696 0.8923 0.2592
vn -0.9658 0.0000 0.2592
vn -0.8923 0.3696 0.2592
vn 0.6829 -0.6829 0.2592
vn -0.8923 -0.3696 0.2592
usemtl None
s 1
f 33/1/1 2/2/2 4/3/3 34/4/4
f 34/4/4 4/3/3 6/5/5 35/6/6
f 35/6/6 6/5/5 8/7/7 36/8/8
f 36/8/8 8/7/7 10/9/9 37/10/10
f 37/10/10 10/9/9 12/11/11 38/12/12
f 38/12/12 12/11/11 14/13/13 39/14/14
f 39/14/14 14/13/13 16/15/15 40/16/16
f 40/16/16 16/15/15 18/17/17 41/18/18
f 41/18/18 18/17/17 20/19/19 42/20/20
f 42/20/20 20/19/19 22/21/21 43/22/22
f 43/22/22 22/21/21 24/23/23 44/24/24
f 44/24/24 24/23/23 26/25/25 45/26/26
f 45/26/26 26/25/25 28/27/27 46/28/28
f 46/28/28 28/27/27 30/29/29 47/30/30
f 12/11/11 10/9/9 85/31/31 86/32/32
f 47/30/30 30/29/29 32/33/33 48/34/34
f 48/34/34 32/33/33 2/35/2 33/36/1
f 3/37/35 5/38/36 51/39/36 50/40/35
f 31/41/37 48/34/34 33/36/1 1/42/38
f 29/43/39 47/30/30 48/34/34 31/41/37
f 27/44/40 46/28/28 47/30/30 29/43/39
f 25/45/41 45/26/26 46/28/28 27/44/40
f 23/46/42 44/24/24 45/26/26 25/45/41
f 21/47/43 43/22/22 44/24/24 23/46/42
f 19/48/44 42/20/20 43/22/22 21/47/43
f 17/49/45 41/18/18 42/20/20 19/48/44
f 15/50/46 40/16/16 41/18/18 17/49/45
f 13/51/47 39/14/14 40/16/16 15/50/46
f 11/52/48 38/12/12 39/14/14 13/51/47
f 9/53/49 37/10/10 38/12/12 11/52/48
f 7/54/50 36/8/8 37/10/10 9/53/49
f 5/38/51 35/6/6 36/8/8 7/54/50
f 3/37/52 34/4/4 35/6/6 5/38/51
f 1/55/38 33/1/1 34/4/4 3/37/52
f 54/56/53 55/57/54 71/58/54 70/59/53
f 13/51/55 15/50/56 56/60/56 55/57/55
f 23/46/57 25/45/58 61/61/58 60/62/57
f 9/53/59 11/52/60 54/56/60 53/63/59
f 19/48/61 21/47/62 59/64/62 58/65/61
f 29/43/63 31/41/64 64/66/64 63/67/63
f 5/38/36 7/54/65 52/68/65 51/39/36
f 15/50/56 17/49/66 57/69/66 56/60/56
f 1/55/67 3/37/35 50/40/35 49/70/67
f 25/45/58 27/44/68 62/71/68 61/61/58
f 11/52/60 13/51/55 55/57/55 54/56/60
f 21/47/62 23/46/57 60/62/57 59/64/62
f 31/41/64 1/42/67 49/72/67 64/66/64
f 7/54/65 9/53/59 53/63/59 52/68/65
f 17/49/66 19/48/61 58/65/61 57/69/66
f 27/44/68 29/43/63 63/67/63 62/71/68
f 65/73/69 66/74/69 67/75/69 68/76/69 69/77/69 70/78/69 71/79/69 72/80/69 73/81/69 74/82/69 75/83/69 76/84/69 77/85/69 78/86/69 79/87/69 80/88/69
f 62/71/70 63/67/71 79/89/71 78/90/70
f 55/57/54 56/60/72 72/91/72 71/58/54
f 63/67/71 64/66/73 80/92/73 79/89/71
f 56/60/72 57/69/74 73/93/74 72/91/72
f 49/70/75 50/40/76 66/94/76 65/95/75
f 64/66/73 49/72/75 65/96/75 80/92/73
f 57/69/74 58/65/77 74/97/77 73/93/74
f 50/40/76 51/39/78 67/98/78 66/94/76
f 58/65/77 59/64/79 75/99/79 74/97/77
f 51/39/78 52/68/80 68/100/80 67/98/78
f 59/64/79 60/62/81 76/101/81 75/99/79
f 52/68/80 53/63/82 69/102/82 68/100/80
f 60/62/81 61/61/83 77/103/83 76/101/81
f 53/63/82 54/56/53 70/59/53 69/102/82
f 61/61/83 62/71/70 78/90/70 77/103/83
f 81/104/84 82/105/84 96/106/84 95/107/84 94/108/84 93/109/84 92/110/84 91/111/84 90/112/84 89/113/84 88/114/84 87/115/84 86/116/84 85/117/84 84/118/84 83/119/84
f 22/21/21 20/19/19 90/120/85 91/121/86
f 32/33/33 30/29/29 95/122/87 96/123/88
f 8/7/7 6/5/5 83/124/89 84/125/90
f 18/17/17 16/15/15 88/126/91 89/127/92
f 4/3/3 2/2/2 82/128/93 81/129/94
f 28/27/27 26/25/25 93/130/95 94/131/96
f 14/13/13 12/11/11 86/32/32 87/132/97
f 24/23/23 22/21/21 91/121/86 92/133/98
f 2/35/2 32/33/33 96/123/88 82/134/93
f 10/9/9 8/7/7 84/125/90 85/31/31
f 20/19/19 18/17/17 89/127/92 90/120/85
f 30/29/29 28/27/27 94/131/96 95/122/87
f 6/5/5 4/3/3 81/129/94 83/124/89
f 16/15/15 14/13/13 87/132/97 88/126/91
f 26/25/25 24/23/23 92/133/98 93/130/95
